HIERARCHY
ROOT Hips
{
	OFFSET 0.000000 0.000000 0.000000
	CHANNELS 6 Xposition Yposition Zposition Xrotation Yrotation Zrotation
	JOINT LeftUpLeg_virtual
	{
		OFFSET 0.000000 0.000000 0.000000
		CHANNELS 3 Xrotation Yrotation Zrotation
		JOINT LeftUpLeg
		{
			OFFSET 15.427100 -6.655098 0.678600
			CHANNELS 3 Xrotation Yrotation Zrotation
			JOINT LeftLeg
			{
				OFFSET 4.081073 -39.591068 13.024000
				CHANNELS 3 Xrotation Yrotation Zrotation
				JOINT LeftFoot
				{
					OFFSET -4.081074 -37.707932 -15.979700
					CHANNELS 3 Xrotation Yrotation Zrotation
					JOINT LeftToeBase
					{
						OFFSET 5.346399 -15.068900 20.645000
						CHANNELS 3 Xrotation Yrotation Zrotation
						JOINT LeftToe_End
						{
							OFFSET 2.754700 0.931300 11.300900
							CHANNELS 3 Xrotation Yrotation Zrotation
							End Site
							{
								OFFSET 0 0 0
							}
						}
					}
				}
			}
		}
	}
	JOINT RightUpLeg_virtual
	{
		OFFSET 0.000000 0.000000 0.000000
		CHANNELS 3 Xrotation Yrotation Zrotation
		JOINT RightUpLeg
		{
			OFFSET -15.569500 -6.655098 0.678600
			CHANNELS 3 Xrotation Yrotation Zrotation
			JOINT RightLeg
			{
				OFFSET -4.081825 -39.591045 13.023800
				CHANNELS 3 Xrotation Yrotation Zrotation
				JOINT RightFoot
				{
					OFFSET 4.081824 -37.707954 -15.979600
					CHANNELS 3 Xrotation Yrotation Zrotation
					JOINT RightToeBase
					{
						OFFSET -5.346400 -15.068900 20.645000
						CHANNELS 3 Xrotation Yrotation Zrotation
						JOINT RightToe_End
						{
							OFFSET -2.754700 0.931300 11.300900
							CHANNELS 3 Xrotation Yrotation Zrotation
							End Site
							{
								OFFSET 0 0 0
							}
						}
					}
				}
			}
		}
	}
	JOINT Spine_virtual
	{
		OFFSET 0.000000 0.000000 0.000000
		CHANNELS 3 Xrotation Yrotation Zrotation
		JOINT Spine
		{
			OFFSET -0.279200 12.230698 -2.892100
			CHANNELS 3 Xrotation Yrotation Zrotation
			JOINT Spine1
			{
				OFFSET -0.232667 10.192268 -1.242267
				CHANNELS 3 Xrotation Yrotation Zrotation
				JOINT Spine1_split
				{
					OFFSET -0.232667 10.192268 -1.242267
					CHANNELS 3 Xrotation Yrotation Zrotation
					JOINT Spine2
					{
						OFFSET -0.232667 10.192268 -1.242267
						CHANNELS 3 Xrotation Yrotation Zrotation
						JOINT Neck_virtual
						{
							OFFSET 0.000000 0.000000 0.000000
							CHANNELS 3 Xrotation Yrotation Zrotation
							JOINT Neck
							{
								OFFSET -0.418800 17.814194 8.416900
								CHANNELS 3 Xrotation Yrotation Zrotation
								JOINT Head
								{
									OFFSET 0.000000 7.031097 3.806800
									CHANNELS 3 Xrotation Yrotation Zrotation
									JOINT HeadTop_End
									{
										OFFSET 0.000000 24.646606 12.978600
										CHANNELS 3 Xrotation Yrotation Zrotation
										End Site
										{
											OFFSET 0 0 0
										}
									}
								}
							}
						}
						JOINT LeftShoulder_virtual
						{
							OFFSET 0.000000 0.000000 0.000000
							CHANNELS 3 Xrotation Yrotation Zrotation
							JOINT LeftShoulder
							{
								OFFSET 8.476499 7.247704 -3.868750
								CHANNELS 3 Xrotation Yrotation Zrotation
								JOINT LeftShoulder_split
								{
									OFFSET 8.476499 7.247704 -3.868750
									CHANNELS 3 Xrotation Yrotation Zrotation
									JOINT LeftArm
									{
										OFFSET 9.308998 -2.777710 0.208600
										CHANNELS 3 Xrotation Yrotation Zrotation
										JOINT LeftForeArm
										{
											OFFSET 29.972298 0.000000 0.000000
											CHANNELS 3 Xrotation Yrotation Zrotation
											JOINT LeftHand
											{
												OFFSET 26.026505 0.000000 0.000000
												CHANNELS 3 Xrotation Yrotation Zrotation
												End Site
												{
													OFFSET 0 0 0
												}
											}
										}
									}
								}
							}
						}
						JOINT RightShoulder_virtual
						{
							OFFSET 0.000000 0.000000 0.000000
							CHANNELS 3 Xrotation Yrotation Zrotation
							JOINT RightShoulder
							{
								OFFSET -7.570500 7.247704 -3.868750
								CHANNELS 3 Xrotation Yrotation Zrotation
								JOINT RightShoulder_split
								{
									OFFSET -7.570500 7.247704 -3.868750
									CHANNELS 3 Xrotation Yrotation Zrotation
									JOINT RightArm
									{
										OFFSET -9.308998 -2.777710 0.208500
										CHANNELS 3 Xrotation Yrotation Zrotation
										JOINT RightForeArm
										{
											OFFSET -29.972300 0.000000 0.000000
											CHANNELS 3 Xrotation Yrotation Zrotation
											JOINT RightHand
											{
												OFFSET -26.026505 0.000000 0.000000
												CHANNELS 3 Xrotation Yrotation Zrotation
												End Site
												{
													OFFSET 0 0 0
												}
											}
										}
									}
								}
							}
						}
					}
				}
			}
		}
	}
}
MOTION
Frames: 8
Frame Time: 0.03333333
-0.549369 77.184135 -3.073078 0.000000 0.000000 0.000000 -18.628093 0.223783 -0.119860 -15.815802 -1.998263 17.754587 54.352617 0.082118 0.107315 -25.509619 0.455236 -13.377024 -1.838060 -0.975332 -1.097393 0.000000 0.000000 0.000000 -18.100054 0.413299 0.014828 -7.453245 -6.219531 -20.796715 49.878143 4.364214 2.001294 -31.208797 -4.721303 12.801914 3.893033 0.573885 0.300711 0.000000 0.000000 0.000000 -18.723794 2.547510 -0.262777 18.802683 -1.681720 3.241416 9.373572 -0.229009 1.347768 1.417199 4.311302 -1.231785 0.000000 0.000000 0.000000 8.162821 -0.727654 1.296621 -15.767227 0.860537 -1.853134 -18.057717 -2.766148 1.410260 0.000000 0.000000 0.000000 10.087600 -1.105646 1.487611 1.628115 -7.839859 -6.235899 -8.597202 -1.010427 -6.021934 -7.146035 -17.406717 -53.791845 64.613378 -58.174272 56.841750 0.000000 0.000000 0.000000 8.739137 -0.598251 1.163602 10.488003 -0.629632 13.998251 -2.245452 1.559351 -1.917182 -24.119327 11.112523 63.016022 82.202460 66.604344 -78.432203 0.000000 0.000000 0.000000 
-0.474631 77.211670 -3.148235 0.000000 0.000000 0.000000 -18.473785 0.807640 -0.025504 -16.064286 -2.090436 17.537815 54.733308 0.135320 0.359674 -25.152221 0.472959 -13.567346 -2.444612 -0.973430 -0.980922 0.000000 0.000000 0.000000 -17.911249 0.980476 0.016722 -7.219513 -5.892827 -20.809483 49.761435 4.533098 1.826788 -31.255007 -4.803882 12.959701 3.437129 0.643203 0.276810 0.000000 0.000000 0.000000 -18.362335 2.648627 -0.183261 18.636113 -1.672446 3.142840 9.307216 -0.370206 1.197619 1.454219 3.392131 -1.370809 0.000000 0.000000 0.000000 8.165610 -0.722653 1.149573 -14.982776 0.891412 -2.277820 -18.314963 -2.202800 1.197129 0.000000 0.000000 0.000000 9.953125 -1.151011 1.547319 1.502501 -8.287874 -6.354842 -7.482665 -0.202528 -5.330193 -8.909359 -15.910577 -53.650125 62.121322 -58.406580 54.060855 0.000000 0.000000 0.000000 8.933259 -0.681008 1.168810 10.701692 -0.800321 15.014334 -3.725922 1.270985 -1.028371 -23.961518 9.106771 59.825251 80.297370 66.323855 -75.325191 0.000000 0.000000 0.000000 
-0.422418 77.234482 -3.278065 0.000000 0.000000 0.000000 -17.856683 2.105531 0.095359 -16.693939 -2.730585 17.121146 55.216004 0.331152 0.709841 -24.657789 0.206514 -13.383292 -3.164840 -0.987818 -0.729446 0.000000 0.000000 0.000000 -17.310285 2.647517 0.136146 -6.748679 -6.213189 -20.694794 49.381069 4.468908 1.729837 -31.221075 -5.172868 12.873905 3.269442 0.671278 0.454028 0.000000 0.000000 0.000000 -17.774903 3.629595 0.077239 18.401098 -1.710798 2.941432 9.001362 -0.614101 1.024332 1.123757 2.404988 -0.547641 0.000000 0.000000 0.000000 7.984018 -0.862099 1.061020 -13.490831 0.743637 -2.726691 -18.199603 -1.662826 0.425997 0.000000 0.000000 0.000000 9.566154 -1.259584 1.626653 1.275259 -9.529218 -6.692765 -6.682663 0.281384 -4.561486 -10.273348 -14.574015 -52.003862 58.078383 -57.012289 48.196458 0.000000 0.000000 0.000000 9.012520 -0.971928 1.128256 10.820117 -1.323131 16.727692 -4.560760 1.980852 -0.012610 -23.077666 6.134177 52.909080 85.590166 68.560121 -78.896512 0.000000 0.000000 0.000000 
-0.391273 77.256935 -3.468185 0.000000 0.000000 0.000000 -16.833469 3.975378 0.200966 -17.772350 -3.956092 16.558610 55.569425 0.613573 1.082859 -24.194070 -0.240162 -12.962832 -3.160821 -0.975307 -0.624365 0.000000 0.000000 0.000000 -16.448231 5.090653 0.316511 -6.226937 -7.173391 -20.568934 48.858064 4.233874 1.760539 -31.135523 -5.833798 12.632841 3.487438 0.669738 0.712659 0.000000 0.000000 0.000000 -16.937618 5.320425 0.397097 18.140907 -1.839911 2.678493 8.471618 -0.990078 0.884930 0.676029 1.448882 0.687001 0.000000 0.000000 0.000000 7.596973 -1.140604 1.072252 -11.742857 0.364516 -2.757887 -17.813080 -1.100363 -0.766920 0.000000 0.000000 0.000000 9.022157 -1.477304 1.728363 1.010055 -11.142902 -7.311911 -5.555296 0.012444 -3.963563 -10.754402 -13.835720 -49.063602 54.011831 -54.402423 40.885144 0.000000 0.000000 0.000000 8.768125 -1.443085 1.071392 10.801769 -2.204643 18.479647 -4.820828 2.972383 0.718545 -23.063505 2.526720 44.336517 97.566739 72.235801 -89.259337 0.000000 0.000000 0.000000 
-0.397845 77.314331 -3.666317 0.000000 0.000000 0.000000 -15.486498 6.372435 0.296112 -19.361710 -5.746766 15.811099 55.636655 0.798220 1.414054 -23.527953 -0.835059 -12.787401 -2.358879 -0.907147 -0.750630 0.000000 0.000000 0.000000 -15.426098 7.879590 0.508049 -5.723681 -8.744501 -20.512241 48.237227 3.919781 1.946584 -30.984419 -6.721692 12.427564 3.927906 0.663096 0.909605 0.000000 0.000000 0.000000 -15.883878 7.622387 0.698843 17.905539 -2.073048 2.389567 7.788669 -1.496635 0.833979 0.383704 0.980238 1.094527 0.000000 0.000000 0.000000 7.071726 -1.579495 1.232993 -10.109215 -0.343780 -2.003306 -17.363201 -0.683829 -2.070783 0.000000 0.000000 0.000000 8.337658 -1.833869 1.846319 0.782488 -12.782726 -8.141711 -4.382790 -0.500170 -3.667181 -10.271991 -13.628624 -45.225742 51.315194 -51.832578 33.920038 0.000000 0.000000 0.000000 8.117573 -2.068150 1.038018 10.574923 -3.547166 19.378778 -3.544003 3.640616 0.720397 -26.264973 -0.880305 36.152424 119.192388 75.348543 -109.819101 0.000000 0.000000 0.000000 
-0.388379 77.509415 -3.835434 0.000000 0.000000 0.000000 -13.988507 9.128848 0.406346 -21.355104 -7.887713 14.823723 55.310455 0.762893 1.644690 -22.351412 -1.544971 -13.153554 -1.442690 -0.810314 -0.904573 0.000000 0.000000 0.000000 -14.285868 10.644399 0.701111 -5.186222 -10.827090 -20.576548 47.415358 3.612144 2.251755 -30.773318 -7.722125 12.340462 4.337279 0.672025 0.943708 0.000000 0.000000 0.000000 -14.709152 10.248214 0.975811 17.721320 -2.410764 2.134813 7.003886 -2.104378 0.893943 0.127097 0.878992 0.637318 0.000000 0.000000 0.000000 6.537868 -2.158973 1.509694 -8.844721 -1.546079 -0.312677 -16.911559 -0.756999 -3.199603 0.000000 0.000000 0.000000 7.555265 -2.270886 1.956676 0.654569 -14.115080 -9.114137 -3.272401 -1.007350 -3.697370 -9.454973 -13.670671 -40.806012 49.939078 -50.421006 27.847209 0.000000 0.000000 0.000000 7.195901 -2.738019 1.059237 10.107157 -5.163736 18.505959 -1.492597 4.148676 0.427459 -33.770788 -2.442302 30.426785 145.805018 75.540171 -135.955175 0.000000 0.000000 0.000000 
-0.314761 77.865829 -3.790337 0.000000 0.000000 0.000000 -12.484819 12.015244 0.613722 -23.466828 -9.972594 13.550264 54.534703 0.717750 1.655490 -20.716604 -2.225150 -13.605809 -0.951518 -0.720990 -0.983652 0.000000 0.000000 0.000000 -13.018871 13.234950 0.964920 -4.652146 -13.301866 -20.848259 46.084055 3.354259 2.612995 -30.516541 -8.659002 12.361684 4.656838 0.698804 0.825663 0.000000 0.000000 0.000000 -13.494755 12.851646 1.210566 17.593058 -2.721563 1.931264 6.258675 -2.642684 1.056589 0.371842 0.900061 -0.137129 0.000000 0.000000 0.000000 6.087541 -2.677276 1.824695 -8.166359 -3.147738 2.087317 -16.673959 -1.395960 -3.921758 0.000000 0.000000 0.000000 6.752164 -2.679801 2.071759 0.613833 -15.139647 -10.112306 -2.410256 -1.649801 -4.046426 -8.956040 -13.433835 -36.506050 48.728670 -50.123487 22.236745 0.000000 0.000000 0.000000 6.117858 -3.331972 1.147176 9.357244 -6.769992 15.763901 0.189269 4.351830 0.552240 -45.875382 -1.378440 27.744607 162.687156 73.725601 -152.775212 0.000000 0.000000 0.000000 
-0.201576 78.444237 -3.643383 0.000000 0.000000 0.000000 -11.049024 14.643507 1.030594 -25.300158 -11.605406 11.997746 53.159052 0.965651 1.426200 -18.845037 -2.691099 -13.685220 -0.829175 -0.650768 -1.041829 0.000000 0.000000 0.000000 -11.574158 15.422214 1.382092 -4.249287 -15.969288 -21.405763 44.048839 3.159307 2.975747 -30.107942 -9.316946 12.432257 4.805491 0.730240 0.631055 0.000000 0.000000 0.000000 -12.433142 15.323659 1.534909 17.520197 -2.856087 1.782242 5.631731 -2.897493 1.215338 0.712225 0.752945 -0.728497 0.000000 0.000000 0.000000 5.762253 -2.951348 2.059662 -8.237416 -5.081300 4.612740 -16.930106 -2.865833 -4.254308 0.000000 0.000000 0.000000 5.930891 -2.844345 2.136568 0.613290 -16.005339 -11.206670 -1.658021 -2.395848 -4.466436 -9.224711 -12.985276 -33.138985 46.810309 -50.153239 16.605833 0.000000 0.000000 0.000000 5.109946 -3.652132 1.226906 8.267856 -7.884188 11.321140 0.613420 5.199871 1.054333 -60.532804 1.906654 28.083624 167.146094 73.754521 -157.344472 0.000000 0.000000 0.000000 
